# xmcd
#
# Track frame offsets:
# 150
# 22088
# 44488
# 62561
# 87080
# 106467
# 129530
# 147188
# 174754
# 196878
# 219924
# 239002
#
# Disc length: 3322 seconds
#
# Revision: 1
# Processed by: cddbd v1.5.1PL0 Copyright (c) Steve Scherf et al.
# Submitted via: plextools 2.23
#
DISCID=a50cf80c
DTITLE=SheepSlowlySleep - 葉鍵管弦楽セレナーデ「Duende（デュエンデ）」
DYEAR=2005
DGENRE=Game
TTITLE0=SheepSlowlySleep - 夏影
TTITLE1=SheepSlowlySleep - 血の痕を辿りし者
TTITLE2=SheepSlowlySleep - 無添加少女のワルツ
TTITLE3=SheepSlowlySleep - Kanon
TTITLE4=SheepSlowlySleep - 消え行く雪
TTITLE5=SheepSlowlySleep - 葉鍵管弦楽セレナード「天から舞降りる妖精たち」ヘ長調 第一楽章 Allegro di molto
TTITLE6=SheepSlowlySleep - 葉鍵管弦楽セレナード「天から舞降りる妖精たち」ヘ長調 第二楽章 Amadile
TTITLE7=SheepSlowlySleep - 葉鍵管弦楽セレナード「天から舞降りる妖精たち」ヘ長調 第三楽章 Allegro con brio
TTITLE8=SheepSlowlySleep - Legendary Anthem
TTITLE9=SheepSlowlySleep - 明日の風に向かって
TTITLE10=SheepSlowlySleep - ボーナストラック
TTITLE11=SheepSlowlySleep - トラック名なし
EXTD=YEAR: 2005
EXTT0=
EXTT1=
EXTT2=
EXTT3=
EXTT4=
EXTT5=
EXTT6=
EXTT7=
EXTT8=
EXTT9=
EXTT10=
EXTT11=
PLAYORDER=
